# xmcd
#
# Track frame offsets: 
#        150
#        24648
#        41955
#        64179
#        76273
#        92103
#        113993
#        123550
#        162443
#        174408
#
# Disc length: 2512 seconds
#
# Revision: 0
# Processed by: cddbd v1.5.2PL0 Copyright (c) Steve Scherf et al.
# Submitted via: ExactAudioCopy v0.99pb5
#
DISCID=8509ce0a
DTITLE=B.B. King - Collector's Edition [CD1]
DYEAR=2008
DGENRE=Blues
TTITLE0=Thrill Is Gone
TTITLE1=To Know You Is To Love You
TTITLE2=Confessin' The Blues
TTITLE3=Everyday I Have The Blues
TTITLE4=I Like To Live The Love
TTITLE5=I'll Survive
TTITLE6=Sneakin' Around
TTITLE7=Why I Sing The Blues
TTITLE8=Fools Get Wise
TTITLE9=Ask Me No Questions
EXTD=
EXTT0=
EXTT1=
EXTT2=
EXTT3=
EXTT4=
EXTT5=
EXTT6=
EXTT7=
EXTT8=
EXTT9=
PLAYORDER=
